<?xml version="1.0" encoding="UTF-8"?> <svg xmlns="http://www.w3.org/2000/svg" width="176" height="119" viewBox="0 0 176 119" fill="none"> <rect width="43" height="20" transform="matrix(-1 1.13294e-09 1.13294e-09 1 81 95)" fill="white"></rect> <rect width="136.4" height="97.5333" transform="matrix(-1 1.13294e-09 1.13294e-09 1 136.4 0)" fill="white"></rect> <rect width="58.6666" height="112.2" transform="matrix(-1 1.13294e-09 1.13294e-09 1 139.333 5.86719)" fill="#F44C75"></rect> <path d="M123.933 32.4285C123.933 22.3033 115.725 14.0952 105.6 14.0952C95.4746 14.0952 87.2665 22.3033 87.2665 32.4285L87.2665 66.8952L123.933 66.8952L123.933 32.4285Z" fill="white"></path> <path d="M120.267 33.1623C120.267 25.0621 113.7 18.4956 105.6 18.4956C97.4998 18.4956 90.9333 25.0621 90.9333 33.1623L90.9333 62.4956L120.267 62.4956L120.267 33.1623Z" fill="#FFD749"></path> <rect width="3.66666" height="46.9333" transform="matrix(-1 1.13294e-09 1.13294e-09 1 107.067 17.7627)" fill="white"></rect> <rect width="3.66667" height="33" transform="matrix(4.48443e-08 1 1 -4.48443e-08 88.7337 33.1631)" fill="white"></rect> <rect width="3.66667" height="33" transform="matrix(4.48443e-08 1 1 -4.48443e-08 88.7337 48.5625)" fill="white"></rect> <rect width="73.3333" height="5.13333" transform="matrix(-1 1.13294e-09 1.13294e-09 1 96.0665 112.934)" fill="white"></rect> <rect width="75.5333" height="79.9333" transform="matrix(-1 1.13294e-09 1.13294e-09 1 80.6663 5.86719)" fill="#602B7A"></rect> <rect width="43.2666" height="118.067" rx="2.93333" transform="matrix(-1 1.13294e-09 1.13294e-09 1 173.066 0)" fill="white"></rect> <rect x="-0.733333" y="0.733333" width="28.6" height="21.2667" rx="2.2" transform="matrix(-1 1.75568e-09 7.31089e-10 1 165 11)" stroke="#F44C75" stroke-width="1.46667" stroke-linecap="round" stroke-linejoin="round"></rect> <rect x="-0.733333" y="0.733333" width="28.6" height="26.4" rx="2.2" transform="matrix(-1 1.75568e-09 7.31089e-10 1 165 39.5996)" stroke="#F44C75" stroke-width="1.46667" stroke-linecap="round" stroke-linejoin="round"></rect> <circle r="2.93333" transform="matrix(-1 1.13294e-09 1.13294e-09 1 173.066 67.4665)" fill="#F44C75"></circle> <rect x="-0.733333" y="0.733333" width="28.6" height="33" rx="2.2" transform="matrix(-1 1.75568e-09 7.31089e-10 1 165 74.0669)" stroke="#F44C75" stroke-width="1.46667" stroke-linecap="round" stroke-linejoin="round"></rect> <circle cx="59.4" cy="90.9333" r="2.93333" fill="#F44C75"></circle> <rect x="10.9998" y="14.667" width="64.5333" height="49.8666" rx="2.93333" fill="#F44C75"></rect> <rect x="13.9331" y="23.4673" width="58.6666" height="38.1333" rx="1.46667" fill="white"></rect> <path d="M39.713 49.2806L35.5804 32.3745C35.3175 31.299 36.2956 30.3311 37.3683 30.6052L54.2744 34.9257C55.3803 35.2083 55.7537 36.5903 54.9406 37.3914L42.1671 49.977C41.3561 50.7762 39.9834 50.3866 39.713 49.2806Z" fill="#602B7A"></path> <rect x="45.8016" y="37.7476" width="20.195" height="5.00417" rx="1.46667" transform="rotate(45 45.8016 37.7476)" fill="#602B7A"></rect> </svg> 