<?xml version="1.0" encoding="UTF-8"?> <svg xmlns="http://www.w3.org/2000/svg" width="426" height="240" viewBox="0 0 426 240" fill="none"> <path d="M0 20C0 8.9543 8.95431 0 20 0H406C417.046 0 426 8.95431 426 20V220C426 231.046 417.046 240 406 240H20C8.95431 240 0 231.046 0 220V20Z" fill="#8D30B9"></path> <path d="M44.36 188.2C45.88 188.2 47.2 188.456 48.32 188.968C49.44 189.464 50.304 190.184 50.912 191.128C51.52 192.056 51.824 193.152 51.824 194.416C51.824 195.68 51.52 196.776 50.912 197.704C50.304 198.632 49.44 199.352 48.32 199.864C47.2 200.36 45.88 200.608 44.36 200.608H41.432V205H36.68V188.2H44.36ZM44.072 196.864C45.048 196.864 45.784 196.656 46.28 196.24C46.776 195.808 47.024 195.2 47.024 194.416C47.024 193.632 46.776 193.024 46.28 192.592C45.784 192.16 45.048 191.944 44.072 191.944H41.432V196.864H44.072ZM67.8164 191.992L62.2004 205.528C61.5444 207.128 60.7444 208.248 59.8004 208.888C58.8564 209.544 57.7044 209.872 56.3444 209.872C55.6564 209.872 54.9604 209.76 54.2564 209.536C53.5684 209.328 53.0084 209.048 52.5764 208.696L54.1604 205.504C54.4164 205.744 54.7204 205.928 55.0724 206.056C55.4404 206.2 55.8084 206.272 56.1764 206.272C56.6084 206.272 56.9604 206.184 57.2324 206.008C57.5204 205.832 57.7604 205.552 57.9524 205.168L52.3844 191.992H57.0644L60.2564 199.936L63.4724 191.992H67.8164ZM78.3228 204.472C77.9388 204.712 77.4668 204.896 76.9068 205.024C76.3628 205.152 75.7788 205.216 75.1548 205.216C73.4588 205.216 72.1548 204.8 71.2428 203.968C70.3308 203.136 69.8748 201.896 69.8748 200.248V195.88H67.9788V192.472H69.8748V189.088H74.4348V192.472H77.4108V195.88H74.4348V200.2C74.4348 200.664 74.5548 201.032 74.7948 201.304C75.0508 201.56 75.3868 201.688 75.8028 201.688C76.3308 201.688 76.7948 201.552 77.1948 201.28L78.3228 204.472ZM88.5532 191.776C90.1692 191.776 91.4652 192.256 92.4412 193.216C93.4332 194.176 93.9292 195.624 93.9292 197.56V205H89.3692V198.304C89.3692 196.528 88.6572 195.64 87.2332 195.64C86.4492 195.64 85.8172 195.896 85.3372 196.408C84.8732 196.92 84.6412 197.688 84.6412 198.712V205H80.0812V187.192H84.6412V193.192C85.1372 192.728 85.7212 192.376 86.3932 192.136C87.0652 191.896 87.7852 191.776 88.5532 191.776ZM103.508 205.216C102.116 205.216 100.86 204.928 99.7396 204.352C98.6196 203.776 97.7396 202.976 97.0996 201.952C96.4756 200.928 96.1636 199.768 96.1636 198.472C96.1636 197.192 96.4756 196.04 97.0996 195.016C97.7396 193.992 98.6116 193.2 99.7156 192.64C100.836 192.064 102.1 191.776 103.508 191.776C104.916 191.776 106.18 192.064 107.3 192.64C108.42 193.2 109.292 193.992 109.916 195.016C110.54 196.024 110.852 197.176 110.852 198.472C110.852 199.768 110.54 200.928 109.916 201.952C109.292 202.976 108.42 203.776 107.3 204.352C106.18 204.928 104.916 205.216 103.508 205.216ZM103.508 201.592C104.308 201.592 104.964 201.32 105.476 200.776C105.988 200.216 106.244 199.448 106.244 198.472C106.244 197.512 105.988 196.76 105.476 196.216C104.964 195.672 104.308 195.4 103.508 195.4C102.708 195.4 102.052 195.672 101.54 196.216C101.028 196.76 100.772 197.512 100.772 198.472C100.772 199.448 101.028 200.216 101.54 200.776C102.052 201.32 102.708 201.592 103.508 201.592ZM121.436 191.776C123.052 191.776 124.348 192.256 125.324 193.216C126.316 194.176 126.812 195.624 126.812 197.56V205H122.252V198.304C122.252 196.528 121.54 195.64 120.116 195.64C119.332 195.64 118.7 195.896 118.22 196.408C117.756 196.92 117.524 197.688 117.524 198.712V205H112.964V191.992H117.308V193.408C117.82 192.88 118.428 192.48 119.132 192.208C119.836 191.92 120.604 191.776 121.436 191.776ZM142.779 205.336C141.419 205.336 140.099 205.168 138.819 204.832C137.539 204.496 136.499 204.048 135.699 203.488L137.259 199.984C138.011 200.48 138.883 200.88 139.875 201.184C140.867 201.488 141.843 201.64 142.803 201.64C144.627 201.64 145.539 201.184 145.539 200.272C145.539 199.792 145.275 199.44 144.747 199.216C144.235 198.976 143.403 198.728 142.251 198.472C140.987 198.2 139.931 197.912 139.083 197.608C138.235 197.288 137.507 196.784 136.899 196.096C136.291 195.408 135.987 194.48 135.987 193.312C135.987 192.288 136.267 191.368 136.827 190.552C137.387 189.72 138.219 189.064 139.323 188.584C140.443 188.104 141.811 187.864 143.427 187.864C144.531 187.864 145.619 187.992 146.691 188.248C147.763 188.488 148.707 188.848 149.523 189.328L148.059 192.856C146.459 191.992 144.907 191.56 143.403 191.56C142.459 191.56 141.771 191.704 141.339 191.992C140.907 192.264 140.691 192.624 140.691 193.072C140.691 193.52 140.947 193.856 141.459 194.08C141.971 194.304 142.795 194.536 143.931 194.776C145.211 195.048 146.267 195.344 147.099 195.664C147.947 195.968 148.675 196.464 149.283 197.152C149.907 197.824 150.219 198.744 150.219 199.912C150.219 200.92 149.939 201.832 149.379 202.648C148.819 203.464 147.979 204.12 146.859 204.616C145.739 205.096 144.379 205.336 142.779 205.336ZM161.174 204.472C160.79 204.712 160.318 204.896 159.758 205.024C159.214 205.152 158.63 205.216 158.006 205.216C156.31 205.216 155.006 204.8 154.094 203.968C153.182 203.136 152.726 201.896 152.726 200.248V195.88H150.83V192.472H152.726V189.088H157.286V192.472H160.262V195.88H157.286V200.2C157.286 200.664 157.406 201.032 157.646 201.304C157.902 201.56 158.238 201.688 158.654 201.688C159.182 201.688 159.646 201.552 160.046 201.28L161.174 204.472ZM168.477 191.776C170.637 191.776 172.285 192.272 173.421 193.264C174.557 194.24 175.125 195.744 175.125 197.776V205H170.877V203.32C170.221 204.584 168.941 205.216 167.037 205.216C166.029 205.216 165.157 205.04 164.421 204.688C163.685 204.336 163.125 203.864 162.741 203.272C162.373 202.664 162.189 201.976 162.189 201.208C162.189 199.976 162.661 199.024 163.605 198.352C164.549 197.664 166.005 197.32 167.973 197.32H170.565C170.485 195.944 169.565 195.256 167.805 195.256C167.181 195.256 166.549 195.36 165.909 195.568C165.269 195.76 164.725 196.032 164.277 196.384L162.741 193.288C163.461 192.808 164.333 192.44 165.357 192.184C166.397 191.912 167.437 191.776 168.477 191.776ZM168.309 202.336C168.837 202.336 169.301 202.208 169.701 201.952C170.101 201.696 170.389 201.32 170.565 200.824V199.696H168.597C167.269 199.696 166.605 200.136 166.605 201.016C166.605 201.416 166.757 201.736 167.061 201.976C167.365 202.216 167.781 202.336 168.309 202.336ZM182.347 193.552C182.811 192.96 183.411 192.52 184.147 192.232C184.899 191.928 185.755 191.776 186.715 191.776V195.88C186.299 195.832 185.955 195.808 185.683 195.808C184.707 195.808 183.939 196.072 183.379 196.6C182.835 197.128 182.563 197.936 182.563 199.024V205H178.003V191.992H182.347V193.552ZM197.971 204.472C197.587 204.712 197.115 204.896 196.555 205.024C196.011 205.152 195.427 205.216 194.803 205.216C193.107 205.216 191.803 204.8 190.891 203.968C189.979 203.136 189.523 201.896 189.523 200.248V195.88H187.627V192.472H189.523V189.088H194.083V192.472H197.059V195.88H194.083V200.2C194.083 200.664 194.203 201.032 194.443 201.304C194.699 201.56 195.035 201.688 195.451 201.688C195.979 201.688 196.443 201.552 196.843 201.28L197.971 204.472Z" fill="white"></path> <path d="M49.22 156V170H47.22V163.76H39.18V170H37.18V156H39.18V162.02H47.22V156H49.22ZM57.0463 159.3C58.5129 159.3 59.6329 159.66 60.4063 160.38C61.1929 161.1 61.5863 162.173 61.5863 163.6V170H59.7663V168.6C59.4463 169.093 58.9863 169.473 58.3863 169.74C57.7996 169.993 57.0996 170.12 56.2863 170.12C55.0996 170.12 54.1463 169.833 53.4263 169.26C52.7196 168.687 52.3663 167.933 52.3663 167C52.3663 166.067 52.7063 165.32 53.3863 164.76C54.0663 164.187 55.1463 163.9 56.6263 163.9H59.6663V163.52C59.6663 162.693 59.4263 162.06 58.9463 161.62C58.4663 161.18 57.7596 160.96 56.8263 160.96C56.1996 160.96 55.5863 161.067 54.9863 161.28C54.3863 161.48 53.8796 161.753 53.4663 162.1L52.6663 160.66C53.2129 160.22 53.8663 159.887 54.6263 159.66C55.3863 159.42 56.1929 159.3 57.0463 159.3ZM56.6063 168.64C57.3396 168.64 57.9729 168.48 58.5063 168.16C59.0396 167.827 59.4263 167.36 59.6663 166.76V165.28H56.7063C55.0796 165.28 54.2663 165.827 54.2663 166.92C54.2663 167.453 54.4729 167.873 54.8863 168.18C55.2996 168.487 55.8729 168.64 56.6063 168.64ZM73.8547 156V170H71.8747V157.74H68.7147V156H73.8547ZM86.757 168.26V170H76.697V168.64L82.397 163.14C83.0904 162.473 83.557 161.9 83.797 161.42C84.037 160.927 84.157 160.433 84.157 159.94C84.157 159.207 83.897 158.64 83.377 158.24C82.8704 157.827 82.137 157.62 81.177 157.62C79.6304 157.62 78.437 158.127 77.597 159.14L76.237 157.96C76.7837 157.293 77.497 156.773 78.377 156.4C79.2704 156.027 80.2637 155.84 81.357 155.84C82.8237 155.84 83.9904 156.193 84.857 156.9C85.7237 157.593 86.157 158.54 86.157 159.74C86.157 160.487 85.997 161.193 85.677 161.86C85.357 162.527 84.7504 163.287 83.857 164.14L79.577 168.26H86.757ZM88.4447 163.68H93.8247V165.34H88.4447V163.68ZM99.9094 156V170H97.9294V157.74H94.7694V156H99.9094ZM106.972 161.58C108.972 161.58 110.438 161.96 111.372 162.72C112.318 163.467 112.792 164.493 112.792 165.8C112.792 166.627 112.592 167.373 112.192 168.04C111.805 168.693 111.212 169.213 110.412 169.6C109.625 169.973 108.652 170.16 107.492 170.16C106.505 170.16 105.552 170.013 104.632 169.72C103.712 169.413 102.952 168.993 102.352 168.46L103.272 166.88C103.752 167.333 104.365 167.7 105.112 167.98C105.858 168.247 106.645 168.38 107.472 168.38C108.525 168.38 109.338 168.16 109.912 167.72C110.498 167.267 110.792 166.653 110.792 165.88C110.792 165.04 110.472 164.407 109.832 163.98C109.192 163.54 108.098 163.32 106.552 163.32H103.372L104.112 156H112.012V157.74H105.792L105.412 161.58H106.972ZM126.347 159.3C127.374 159.3 128.294 159.527 129.107 159.98C129.921 160.433 130.554 161.067 131.007 161.88C131.474 162.693 131.707 163.633 131.707 164.7C131.707 165.767 131.474 166.713 131.007 167.54C130.554 168.353 129.921 168.987 129.107 169.44C128.294 169.893 127.374 170.12 126.347 170.12C125.587 170.12 124.887 169.973 124.247 169.68C123.621 169.387 123.087 168.96 122.647 168.4V173.88H120.727V159.4H122.567V161.08C122.994 160.493 123.534 160.053 124.187 159.76C124.841 159.453 125.561 159.3 126.347 159.3ZM126.187 168.44C126.867 168.44 127.474 168.287 128.007 167.98C128.554 167.66 128.981 167.22 129.287 166.66C129.607 166.087 129.767 165.433 129.767 164.7C129.767 163.967 129.607 163.32 129.287 162.76C128.981 162.187 128.554 161.747 128.007 161.44C127.474 161.133 126.867 160.98 126.187 160.98C125.521 160.98 124.914 161.14 124.367 161.46C123.834 161.767 123.407 162.2 123.087 162.76C122.781 163.32 122.627 163.967 122.627 164.7C122.627 165.433 122.781 166.087 123.087 166.66C123.394 167.22 123.821 167.66 124.367 167.98C124.914 168.287 125.521 168.44 126.187 168.44ZM139.037 170.12C137.983 170.12 137.037 169.887 136.197 169.42C135.357 168.953 134.697 168.313 134.217 167.5C133.75 166.673 133.517 165.74 133.517 164.7C133.517 163.66 133.75 162.733 134.217 161.92C134.697 161.093 135.357 160.453 136.197 160C137.037 159.533 137.983 159.3 139.037 159.3C140.09 159.3 141.03 159.533 141.857 160C142.697 160.453 143.35 161.093 143.817 161.92C144.297 162.733 144.537 163.66 144.537 164.7C144.537 165.74 144.297 166.673 143.817 167.5C143.35 168.313 142.697 168.953 141.857 169.42C141.03 169.887 140.09 170.12 139.037 170.12ZM139.037 168.44C139.717 168.44 140.323 168.287 140.857 167.98C141.403 167.66 141.83 167.22 142.137 166.66C142.443 166.087 142.597 165.433 142.597 164.7C142.597 163.967 142.443 163.32 142.137 162.76C141.83 162.187 141.403 161.747 140.857 161.44C140.323 161.133 139.717 160.98 139.037 160.98C138.357 160.98 137.743 161.133 137.197 161.44C136.663 161.747 136.237 162.187 135.917 162.76C135.61 163.32 135.457 163.967 135.457 164.7C135.457 165.433 135.61 166.087 135.917 166.66C136.237 167.22 136.663 167.66 137.197 167.98C137.743 168.287 138.357 168.44 139.037 168.44ZM151.429 165.52H149.229V170H147.309V159.4H149.229V163.88H151.469L154.909 159.4H156.969L152.949 164.5L157.249 170H154.989L151.429 165.52ZM159.262 159.4H161.182V170H159.262V159.4ZM160.222 157.36C159.849 157.36 159.536 157.24 159.282 157C159.042 156.76 158.922 156.467 158.922 156.12C158.922 155.773 159.042 155.48 159.282 155.24C159.536 154.987 159.849 154.86 160.222 154.86C160.596 154.86 160.902 154.98 161.142 155.22C161.396 155.447 161.522 155.733 161.522 156.08C161.522 156.44 161.396 156.747 161.142 157C160.902 157.24 160.596 157.36 160.222 157.36ZM172.146 164.5C173.52 164.847 174.206 165.707 174.206 167.08C174.206 168.013 173.853 168.733 173.146 169.24C172.453 169.747 171.413 170 170.026 170H164.926V159.4H169.846C171.1 159.4 172.08 159.64 172.786 160.12C173.493 160.587 173.846 161.253 173.846 162.12C173.846 162.68 173.693 163.167 173.386 163.58C173.093 163.98 172.68 164.287 172.146 164.5ZM166.806 163.96H169.686C170.42 163.96 170.973 163.827 171.346 163.56C171.733 163.293 171.926 162.907 171.926 162.4C171.926 161.387 171.18 160.88 169.686 160.88H166.806V163.96ZM169.886 168.52C170.686 168.52 171.286 168.393 171.686 168.14C172.086 167.887 172.286 167.493 172.286 166.96C172.286 166.413 172.1 166.007 171.726 165.74C171.366 165.473 170.793 165.34 170.006 165.34H166.806V168.52H169.886Z" fill="white"></path> <path d="M341.618 116.404C341.566 116.399 341.516 116.381 341.472 116.351C341.429 116.321 341.395 116.28 341.373 116.233C341.35 116.185 341.341 116.132 341.346 116.08C341.35 116.027 341.369 115.977 341.399 115.934L349.04 105.337C349.07 105.294 349.111 105.26 349.159 105.238C349.208 105.216 349.261 105.208 349.313 105.213C349.366 105.219 349.416 105.239 349.458 105.271C349.5 105.303 349.533 105.345 349.553 105.394L353.448 114.64C353.466 114.684 353.495 114.723 353.531 114.754C353.568 114.784 353.611 114.805 353.658 114.815C353.705 114.825 353.753 114.824 353.799 114.811C353.845 114.798 353.887 114.774 353.922 114.741L361.273 107.886C361.308 107.851 361.352 107.827 361.4 107.814C361.448 107.801 361.498 107.8 361.547 107.812C361.595 107.824 361.639 107.848 361.676 107.881C361.712 107.915 361.739 107.957 361.755 108.004L365.181 117.803C365.198 117.849 365.203 117.9 365.196 117.949C365.188 117.998 365.169 118.044 365.138 118.084C365.108 118.123 365.068 118.154 365.023 118.174C364.977 118.194 364.928 118.202 364.878 118.198L341.618 116.404Z" fill="#6ADA41" stroke="#6ADA41" stroke-width="0.890385" stroke-linecap="round"></path> <path d="M333.653 97.5957C333.631 97.5407 333.593 97.4937 333.543 97.4605C333.494 97.4274 333.436 97.4097 333.377 97.4097C333.318 97.4097 333.26 97.4274 333.21 97.4605C333.161 97.4937 333.123 97.5407 333.101 97.5957L328.714 109.294C328.698 109.338 328.67 109.377 328.635 109.409C328.6 109.441 328.557 109.464 328.511 109.476C328.465 109.488 328.417 109.488 328.371 109.478C328.325 109.468 328.282 109.447 328.245 109.416L315.253 98.4203C315.209 98.3816 315.155 98.3569 315.097 98.3495C315.038 98.342 314.979 98.3522 314.927 98.3786C314.875 98.405 314.831 98.4465 314.803 98.4977C314.774 98.5489 314.762 98.6075 314.767 98.6659L316.289 119.206C316.291 119.248 316.285 119.291 316.27 119.33C316.255 119.369 316.232 119.405 316.202 119.435C316.172 119.465 316.136 119.488 316.097 119.503C316.057 119.518 316.015 119.525 315.973 119.522L304.591 118.781C304.537 118.776 304.484 118.786 304.435 118.81C304.387 118.833 304.347 118.87 304.318 118.915C304.289 118.96 304.273 119.013 304.271 119.066C304.27 119.12 304.283 119.173 304.31 119.219L311.525 132.658C311.551 132.706 311.563 132.759 311.56 132.812C311.558 132.865 311.542 132.917 311.513 132.962C311.483 133.007 311.443 133.043 311.395 133.067C311.347 133.091 311.293 133.101 311.24 133.097L291.814 131.619C291.75 131.616 291.686 131.634 291.633 131.67C291.58 131.706 291.54 131.758 291.519 131.818C291.498 131.879 291.496 131.945 291.516 132.006C291.535 132.067 291.573 132.121 291.625 132.158L306.946 142.861C306.993 142.894 307.03 142.941 307.051 142.995C307.072 143.05 307.077 143.109 307.065 143.166C307.052 143.222 307.024 143.274 306.983 143.315C306.941 143.356 306.889 143.384 306.832 143.396L288.849 146.843C288.79 146.855 288.736 146.885 288.695 146.928C288.653 146.972 288.625 147.027 288.615 147.086C288.605 147.145 288.614 147.206 288.639 147.261C288.664 147.315 288.705 147.361 288.757 147.391L308.209 158.506C308.25 158.53 308.285 158.563 308.311 158.602C308.337 158.642 308.353 158.688 308.357 158.735C308.362 158.782 308.355 158.83 308.338 158.874C308.321 158.918 308.293 158.957 308.258 158.988L302.95 163.589C302.92 163.614 302.895 163.645 302.878 163.68C302.86 163.714 302.849 163.752 302.846 163.791C302.843 163.83 302.848 163.869 302.861 163.906C302.874 163.943 302.893 163.977 302.92 164.006L309.104 171.182C309.135 171.218 309.174 171.247 309.218 171.265C309.263 171.283 309.31 171.29 309.358 171.285C309.406 171.28 309.451 171.264 309.491 171.238C309.531 171.211 309.564 171.176 309.587 171.134L340.754 114.623C340.774 114.582 340.784 114.538 340.784 114.493C340.784 114.448 340.774 114.404 340.754 114.364L333.653 97.5957Z" fill="#6ADA41" stroke="#6ADA41" stroke-width="0.890385" stroke-linecap="round"></path> <path d="M390.524 126.767V118.193C390.524 116.909 390.193 115.926 389.533 115.245C388.872 114.564 387.898 114.225 386.611 114.228H385.651V107.688H388.761C392.082 107.688 394.601 108.509 396.318 110.153C398.034 111.796 398.891 114.172 398.888 117.28V126.978C398.843 127.66 399.064 128.334 399.507 128.855C399.738 129.078 400.014 129.25 400.316 129.361C400.618 129.471 400.94 129.517 401.261 129.496H403.016V136.035H401.261C400.94 136.014 400.618 136.06 400.315 136.171C400.013 136.282 399.738 136.456 399.507 136.68C399.062 137.199 398.839 137.872 398.888 138.553V148.238C398.888 151.349 398.031 153.726 396.318 155.369C394.604 157.013 392.085 157.834 388.761 157.834H385.651V151.308H386.611C387.901 151.308 388.87 150.97 389.533 150.29C390.195 149.61 390.524 148.628 390.524 147.343V138.768C390.524 136.948 390.813 135.588 391.401 134.698C392.053 133.749 393.022 133.065 394.134 132.768C393.02 132.472 392.05 131.786 391.401 130.833C390.809 129.947 390.524 128.588 390.524 126.767Z" fill="#6ADA41"></path> <path d="M261.379 126.812C261.381 126.843 261.381 126.874 261.379 126.904V173.503H320.223V105.219C320.223 105.219 261.317 126.233 261.379 126.812Z" fill="#602B7A" stroke="#602B7A" stroke-width="0.890385" stroke-linecap="round" stroke-linejoin="round"></path> <path d="M262.396 105.219V173.507H321.236V126.909C321.234 126.878 321.234 126.847 321.236 126.816C321.297 126.233 321.973 123.027 325.026 123.027C328.078 123.027 328.754 126.238 328.811 126.816C328.813 126.847 328.813 126.878 328.811 126.909V147.879L346.987 144.848V126.746C346.906 123.168 346.028 119.653 344.417 116.456C340.776 109.316 333.706 105.224 325.021 105.224H262.396V105.219Z" fill="#602B7A" stroke="#602B7A" stroke-width="0.890385" stroke-linecap="round" stroke-linejoin="round"></path> <path d="M283.107 126.36H298.34V130.255H283.107V126.36ZM283.107 134.303H298.34V138.211H283.107V134.303Z" fill="white"></path> <path d="M340.754 114.623C340.774 114.583 340.784 114.538 340.784 114.494C340.784 114.449 340.774 114.405 340.754 114.364L338.767 109.64C338.747 109.594 338.715 109.553 338.675 109.522C336.2 107.663 333.343 106.376 330.311 105.754C330.242 105.74 330.17 105.751 330.108 105.785C330.047 105.818 329.999 105.873 329.973 105.938L328.719 109.298C328.702 109.343 328.675 109.382 328.639 109.414C328.604 109.446 328.562 109.468 328.516 109.48C328.47 109.492 328.422 109.493 328.375 109.483C328.329 109.473 328.286 109.451 328.25 109.421L323.341 105.289C323.289 105.244 323.222 105.22 323.153 105.219H315.249L316.289 119.22C316.292 119.262 316.286 119.305 316.271 119.344C316.257 119.384 316.233 119.42 316.203 119.45C316.173 119.48 316.137 119.503 316.097 119.518C316.058 119.533 316.015 119.539 315.973 119.536L304.569 118.794C304.516 118.791 304.463 118.802 304.416 118.826C304.368 118.85 304.328 118.887 304.3 118.931C304.271 118.976 304.255 119.027 304.253 119.08C304.251 119.133 304.263 119.186 304.288 119.233L311.508 132.672C311.533 132.719 311.545 132.772 311.543 132.826C311.541 132.879 311.524 132.931 311.495 132.976C311.466 133.021 311.425 133.057 311.377 133.08C311.329 133.104 311.276 133.115 311.223 133.111L291.792 131.637C291.728 131.632 291.663 131.649 291.609 131.684C291.555 131.719 291.514 131.771 291.493 131.832C291.471 131.893 291.471 131.959 291.491 132.021C291.511 132.082 291.55 132.135 291.603 132.172L306.924 142.874C306.971 142.908 307.008 142.955 307.029 143.009C307.05 143.063 307.055 143.122 307.043 143.179C307.03 143.236 307.002 143.288 306.961 143.329C306.919 143.37 306.867 143.398 306.81 143.409L288.827 146.852C288.767 146.862 288.711 146.891 288.667 146.934C288.624 146.977 288.595 147.033 288.585 147.094C288.575 147.154 288.584 147.216 288.611 147.271C288.638 147.326 288.681 147.371 288.735 147.401L308.187 158.519C308.228 158.543 308.263 158.575 308.289 158.615C308.315 158.654 308.331 158.699 308.335 158.746C308.34 158.793 308.334 158.84 308.316 158.884C308.299 158.928 308.271 158.967 308.236 158.998L302.942 163.59C302.911 163.615 302.887 163.645 302.869 163.68C302.851 163.715 302.84 163.753 302.837 163.792C302.834 163.831 302.839 163.87 302.852 163.907C302.865 163.944 302.885 163.978 302.911 164.007L309.1 171.187C309.13 171.223 309.17 171.252 309.214 171.27C309.258 171.287 309.306 171.294 309.354 171.29C309.401 171.285 309.447 171.269 309.487 171.242C309.526 171.216 309.559 171.18 309.582 171.138L321.197 150.085C321.22 150.04 321.232 149.991 321.232 149.94V126.904C321.23 126.874 321.23 126.843 321.232 126.812C321.293 126.229 321.969 123.022 325.021 123.022C328.074 123.022 328.75 126.233 328.807 126.812C328.809 126.843 328.809 126.874 328.807 126.904V135.106C328.807 135.172 328.83 135.235 328.87 135.287C328.91 135.338 328.966 135.375 329.03 135.391C329.093 135.408 329.16 135.403 329.22 135.378C329.281 135.352 329.331 135.308 329.364 135.251L340.754 114.623Z" fill="#6ADA41" stroke="#6ADA41" stroke-width="0.890385" stroke-linecap="round" stroke-linejoin="round"></path> <path d="M316.635 86.1338C317.346 86.1338 318.042 85.9229 318.633 85.5277C319.225 85.1325 319.686 84.5708 319.958 83.9136C320.23 83.2564 320.301 82.5332 320.163 81.8355C320.024 81.1378 319.681 80.497 319.178 79.994C318.675 79.491 318.034 79.1484 317.337 79.0097C316.639 78.8709 315.916 78.9421 315.259 79.2143C314.601 79.4866 314.04 79.9475 313.645 80.539C313.249 81.1305 313.038 81.8258 313.038 82.5372C313.038 83.4911 313.417 84.4059 314.092 85.0804C314.766 85.7549 315.681 86.1338 316.635 86.1338Z" fill="white" stroke="#602B7A" stroke-width="0.890385" stroke-linecap="round" stroke-linejoin="round"></path> <path d="M294.581 82.6999C295.293 82.6999 295.988 82.4889 296.58 82.0937C297.171 81.6985 297.632 81.1368 297.904 80.4796C298.177 79.8224 298.248 79.0992 298.109 78.4016C297.97 77.7039 297.628 77.063 297.125 76.56C296.622 76.057 295.981 75.7145 295.283 75.5757C294.585 75.4369 293.862 75.5082 293.205 75.7804C292.548 76.0526 291.986 76.5136 291.591 77.105C291.196 77.6965 290.985 78.3919 290.985 79.1032C290.985 80.0571 291.364 80.9719 292.038 81.6464C292.713 82.3209 293.628 82.6999 294.581 82.6999Z" fill="white" stroke="#602B7A" stroke-width="0.890385" stroke-linecap="round" stroke-linejoin="round"></path> <path d="M298.257 110.35C295.952 109.814 293.953 108.385 292.7 106.377C291.448 104.369 291.044 101.945 291.577 99.639L301.27 57.8523C301.515 56.6901 301.989 55.5883 302.664 54.6115C303.34 53.6347 304.203 52.8025 305.204 52.1637C306.206 51.5249 307.324 51.0924 308.495 50.8914C309.665 50.6904 310.864 50.7251 312.021 50.9933C313.178 51.2615 314.27 51.7579 315.233 52.4534C316.195 53.149 317.009 54.0296 317.627 55.0438C318.245 56.058 318.655 57.1853 318.832 58.3597C319.008 59.5341 318.949 60.732 318.657 61.8832L308.968 103.67C308.433 105.975 307.004 107.974 304.995 109.227C302.987 110.479 300.563 110.883 298.257 110.35Z" fill="white" stroke="#602B7A" stroke-width="0.890385" stroke-linecap="round" stroke-linejoin="round"></path> <path d="M300.349 92.2793C301.652 92.8697 303.068 93.169 304.499 93.1566C305.966 93.0275 307.393 92.6022 308.692 91.9065" stroke="#602B7A" stroke-width="0.890385" stroke-linecap="round" stroke-linejoin="round"></path> <path d="M304.547 67.1517C304.021 66.7987 303.42 66.572 302.792 66.4894C302.131 66.468 301.472 66.5907 300.862 66.8491" stroke="#602B7A" stroke-width="0.890385" stroke-linecap="round" stroke-linejoin="round"></path> <path d="M312.731 71.2919C312.113 71.4652 311.462 71.4907 310.832 71.3665C310.198 71.1768 309.613 70.8521 309.117 70.4147" stroke="#602B7A" stroke-width="0.890385" stroke-linecap="round" stroke-linejoin="round"></path> <path d="M331.741 34.6018C327.662 35.1456 326.719 37.558 321.683 39.4265C316.42 41.3696 313.973 41.4485 308.569 41.5231C303.485 41.5933 298.687 42.7468 296.691 47.383C295.226 50.7778 296.775 55.0718 299.297 57.7737C302.937 61.6686 308.99 61.6642 314.324 61.537C319.324 61.4142 324.385 61.4186 329.236 60.1554C334.087 58.8922 338.767 56.1684 341.228 51.8217C343.689 47.4751 344.342 41.874 340.579 37.7861C339.453 36.6072 338.069 35.706 336.535 35.1534C335.001 34.6008 333.36 34.4119 331.741 34.6018Z" fill="#602B7A" stroke="#602B7A" stroke-width="0.890385" stroke-linecap="round" stroke-linejoin="round"></path> <path d="M297.818 59.6075L306.591 38.0277L310.187 58.8092L319.78 36.4399L327.372 57.6206L335.368 31.2424L342.561 53.6117" stroke="#FF6658" stroke-width="0.890385" stroke-linecap="round" stroke-linejoin="round"></path> <path d="M304.262 77.5945L298.845 85.722L303.073 86.5598" stroke="#602B7A" stroke-width="0.890385" stroke-linecap="round" stroke-linejoin="round"></path> <path d="M309.701 77.6514C309.832 76.9145 309.74 76.2785 309.494 76.2347C309.249 76.1908 308.942 76.7566 308.81 77.4935C308.679 78.2304 308.771 78.8664 309.016 78.9102C309.262 78.9541 309.569 78.3927 309.701 77.6514Z" fill="#602B7A" stroke="#602B7A" stroke-width="0.592128" stroke-linecap="round" stroke-linejoin="round"></path> <path d="M301.599 75.9017C301.731 75.1648 301.639 74.5289 301.393 74.485C301.148 74.4411 300.841 75.0069 300.709 75.7438C300.577 76.4807 300.67 77.1167 300.915 77.1605C301.161 77.2044 301.468 76.643 301.599 75.9017Z" fill="#602B7A" stroke="#602B7A" stroke-width="0.592128" stroke-linecap="round" stroke-linejoin="round"></path> <path d="M310.959 149.356C307.367 148.479 299.555 147.637 294.871 148.264C294.34 148.045 294.332 148.738 294.463 149.242C296.161 150.071 300.231 149.983 303.2 151.15C306.503 152.444 308.744 154.962 311.319 155.172C315.661 155.527 314.131 150.124 310.959 149.356Z" fill="white" stroke="#602B7A" stroke-width="0.890385" stroke-linecap="round" stroke-linejoin="round"></path> <path d="M328.228 148.734C324.784 149.216 313.139 149.83 309.508 149.795C305.876 149.76 301.24 149.01 296.832 149.966C293.839 150.75 290.896 151.713 288.02 152.852C285.612 153.874 283.248 161.318 283.248 161.318L284.384 162.173C284.384 162.173 286.941 156.032 288.559 155.247C290.178 154.462 295.437 152.773 297.016 152.659C294.114 153.296 291.281 154.211 288.555 155.392C285.713 156.708 285.625 165.107 285.625 165.107L287.239 165.489C287.239 165.489 287.48 158.866 290.472 157.541C292.393 156.686 295.735 156.133 297.928 155.958C296.972 156.313 291.371 157.221 290.217 158.392C289.779 158.831 288.599 165.204 288.599 165.204L289.963 165.375C289.963 165.375 292.156 160.747 293.274 160.059C295.367 158.743 296.941 159.032 299.134 158.743C296.731 159.181 295.068 159.234 293.068 160.173C292.459 160.453 291.064 165.405 291.064 165.405L292.125 165.62C292.125 165.62 294.209 162.269 294.726 161.831C294.972 161.62 297.919 161.392 299.775 161.168C304.472 160.563 309.521 160.576 312.775 160.291C317.142 159.899 321.464 159.101 325.684 157.909C328.073 157.203 330.396 156.29 332.627 155.181C335.351 153.804 338.329 152.137 338.329 152.137L335.671 145.536C335.671 145.536 331.772 148.238 328.228 148.734Z" fill="white" stroke="#602B7A" stroke-width="0.890385" stroke-linecap="round" stroke-linejoin="round"></path> <path d="M313.227 152.286C313.23 152.245 313.225 152.204 313.211 152.166C313.198 152.127 313.177 152.091 313.149 152.061C313.122 152.031 313.089 152.006 313.051 151.989C313.014 151.972 312.974 151.963 312.933 151.961L306.674 151.852C306.625 151.851 306.576 151.862 306.532 151.885C306.488 151.908 306.45 151.941 306.422 151.982C306.395 152.023 306.377 152.07 306.372 152.119C306.367 152.169 306.374 152.218 306.393 152.264C306.718 153.054 307.398 154.747 307.586 155.453C307.72 155.973 307.823 156.5 307.893 157.032C307.902 157.102 307.934 157.168 307.985 157.216C308.037 157.265 308.103 157.295 308.174 157.299L312.459 157.563C312.536 157.566 312.612 157.54 312.67 157.489C312.728 157.439 312.764 157.367 312.771 157.291L313.227 152.286Z" fill="#6ADA41" stroke="#6ADA41" stroke-width="1.18426" stroke-linecap="round"></path> <path d="M269.269 170.963H267.304C266.776 170.963 266.27 170.753 265.896 170.379C265.523 170.006 265.313 169.499 265.313 168.971V168.905C265.313 168.644 265.364 168.385 265.464 168.143C265.565 167.902 265.711 167.682 265.896 167.497C266.081 167.312 266.301 167.166 266.542 167.066C266.784 166.966 267.043 166.914 267.304 166.914H269.269C269.531 166.914 269.79 166.966 270.031 167.066C270.273 167.166 270.492 167.312 270.677 167.497C270.862 167.682 271.009 167.902 271.109 168.143C271.209 168.385 271.261 168.644 271.261 168.905V168.971C271.261 169.499 271.051 170.006 270.677 170.379C270.304 170.753 269.797 170.963 269.269 170.963Z" fill="white" stroke="#602B7A" stroke-width="0.890385" stroke-linecap="round" stroke-linejoin="round"></path> <path d="M279.515 170.963H277.55C277.022 170.963 276.516 170.753 276.142 170.379C275.769 170.006 275.559 169.499 275.559 168.971V168.905C275.559 168.644 275.61 168.385 275.71 168.143C275.811 167.902 275.957 167.682 276.142 167.497C276.327 167.312 276.547 167.166 276.788 167.066C277.03 166.966 277.289 166.914 277.55 166.914H279.515C279.777 166.914 280.036 166.966 280.277 167.066C280.519 167.166 280.738 167.312 280.923 167.497C281.108 167.682 281.255 167.902 281.355 168.143C281.455 168.385 281.506 168.644 281.506 168.905V168.971C281.506 169.233 281.455 169.492 281.355 169.733C281.255 169.975 281.108 170.194 280.923 170.379C280.738 170.564 280.519 170.711 280.277 170.811C280.036 170.911 279.777 170.963 279.515 170.963Z" fill="white" stroke="#602B7A" stroke-width="0.890385" stroke-linecap="round" stroke-linejoin="round"></path> <path d="M289.766 170.963H287.814C287.286 170.963 286.779 170.753 286.406 170.379C286.032 170.006 285.822 169.499 285.822 168.971V168.905C285.822 168.644 285.874 168.385 285.974 168.143C286.074 167.902 286.221 167.682 286.406 167.497C286.591 167.312 286.81 167.166 287.052 167.066C287.293 166.966 287.552 166.914 287.814 166.914H289.779C290.04 166.914 290.299 166.966 290.541 167.066C290.782 167.166 291.002 167.312 291.187 167.497C291.372 167.682 291.518 167.902 291.618 168.143C291.718 168.385 291.77 168.644 291.77 168.905V168.971C291.77 169.234 291.718 169.494 291.617 169.736C291.516 169.979 291.368 170.199 291.182 170.384C290.996 170.569 290.775 170.715 290.532 170.815C290.288 170.914 290.028 170.964 289.766 170.963Z" fill="white" stroke="#602B7A" stroke-width="0.890385" stroke-linecap="round" stroke-linejoin="round"></path> <path d="M300.012 170.963H298.047C297.518 170.963 297.012 170.753 296.638 170.379C296.265 170.006 296.055 169.499 296.055 168.971V168.905C296.055 168.644 296.107 168.385 296.207 168.143C296.307 167.902 296.454 167.682 296.638 167.497C296.823 167.312 297.043 167.166 297.285 167.066C297.526 166.966 297.785 166.914 298.047 166.914H300.012C300.273 166.914 300.532 166.966 300.774 167.066C301.015 167.166 301.235 167.312 301.42 167.497C301.605 167.682 301.751 167.902 301.851 168.143C301.951 168.385 302.003 168.644 302.003 168.905V168.971C302.003 169.499 301.793 170.006 301.42 170.379C301.046 170.753 300.54 170.963 300.012 170.963Z" fill="white" stroke="#602B7A" stroke-width="0.890385" stroke-linecap="round" stroke-linejoin="round"></path> <path d="M317.074 169.703H261.304V175.567H317.074V169.703Z" fill="white" stroke="#602B7A" stroke-width="0.890385" stroke-linecap="round" stroke-linejoin="round"></path> <path d="M394.572 118.241H326.552L320.986 113.013H389.739L394.572 118.241Z" fill="white" stroke="#602B7A" stroke-width="0.890385" stroke-linecap="round" stroke-linejoin="round"></path> <path d="M312.376 175.225L307.424 170.032L321.043 113.013L325.973 118.184L312.376 175.225Z" fill="white" stroke="#602B7A" stroke-width="0.890385" stroke-linecap="round" stroke-linejoin="round"></path> <path d="M380.997 175.568H312.245L325.868 118.272H394.625L380.997 175.568Z" fill="white" stroke="#602B7A" stroke-width="0.890385" stroke-linecap="round" stroke-linejoin="round"></path> <path d="M361.567 142.14H351.413L349 152.667H351.544L353.43 155.299L356.658 152.667H359.137L361.567 142.14Z" fill="#602B7A"></path> <path fill-rule="evenodd" clip-rule="evenodd" d="M236.614 47.4316C239.163 47.4316 241.607 48.444 243.41 50.2463C245.212 52.0485 246.224 54.4928 246.224 57.0416V88.8235C246.258 90.2395 246.594 91.6319 247.211 92.907C247.593 93.7954 248.138 94.6047 248.817 95.293L249.097 95.5036C249.317 95.6702 249.615 95.8852 249.975 96.1571C250.733 96.701 251.729 97.3984 252.918 98.2274C255.299 99.8766 258.374 101.973 261.69 104.232C268.344 108.745 275.945 113.838 280.91 117.149C282.916 118.608 284.281 120.786 284.719 123.227C285.157 125.669 284.635 128.185 283.261 130.25C281.887 132.316 279.768 133.77 277.347 134.31C274.926 134.849 272.39 134.432 270.269 133.145C265.278 129.812 257.633 124.693 250.926 120.145C244.553 115.816 238.25 111.491 236.553 110.079C231.312 105.732 227 97.4686 227 88.8103V57.0416C227 55.7792 227.249 54.5292 227.732 53.363C228.215 52.1967 228.923 51.1371 229.816 50.2447C230.709 49.3523 231.769 48.6445 232.935 48.1618C234.102 47.6791 235.352 47.431 236.614 47.4316Z" fill="#602B7A"></path> <path d="M239.193 44.8611C239.672 42.111 241.444 36.4879 242.176 34.0054C244.014 27.7595 245.36 24.2638 246.536 20.847C247.76 17.2811 250.418 11.0484 250.418 11.0484L249.624 10.2808C249.624 10.2808 245.466 17.996 243.86 20.0356C244.176 17.0837 246.084 8.51318 246.084 8.51318L244.983 8L241.347 19.7241C241.347 19.7241 241.759 16.4784 241.027 16.0836C240.027 15.5441 239.027 19.0794 239.027 19.0794C239.027 19.0794 239.176 16.4258 238.286 16.3249C237.601 16.2459 237.062 18.6583 236.86 19.5004C235.983 23.2023 234.728 27.6411 234.141 30.2026C233.365 33.6367 232.914 37.1362 232.794 40.6548C232.749 42.6562 232.877 44.6579 233.176 46.6375C233.562 49.0586 234.106 51.7473 234.106 51.7473C234.106 51.7473 235.421 53.0631 236.86 53.0631C238.299 53.0631 239.812 51.3525 239.812 51.3525C239.812 51.3525 238.689 47.6901 239.193 44.8611Z" fill="white" stroke="#602B7A" stroke-width="0.693009" stroke-linecap="round" stroke-linejoin="round"></path> <path d="M241.514 19.1534C241.514 19.1534 239.759 24.8291 239.536 25.18C239.312 25.5308 238.448 25.5352 238.474 24.8905C238.5 24.2457 239.207 18.3376 239.207 18.3376C239.207 18.3376 237.803 24.2852 237.452 24.4782C237.101 24.6712 236.505 24.5834 236.413 24.158C236.32 23.7325 236.777 19.7324 236.777 19.7324" stroke="#602B7A" stroke-width="0.693009" stroke-linecap="round" stroke-linejoin="round"></path> <path d="M240.11 40.9707C240.429 39.8093 240.863 38.6824 241.404 37.6066C242.281 35.7951 243.663 34.1722 244.974 31.9748C245.738 30.694 247.167 28.1852 247.242 27.0448C247.264 26.3929 247.065 25.7527 246.676 25.2289C246.29 24.7464 245.36 24.5973 244.781 24.378L240.049 22.5797C239.877 22.6883 239.755 22.859 239.706 23.0561C239.658 23.2532 239.688 23.4612 239.79 23.6367C240.007 23.9754 240.31 24.2508 240.667 24.435L242.536 25.5754C242.974 25.8342 243.369 26.014 243.145 26.5491C243.029 26.7697 242.881 26.9721 242.707 27.15C242.233 27.7071 241.698 28.2071 241.189 28.7334C240.036 29.9308 238.825 31.2774 238.382 32.9178" fill="white"></path> <path d="M240.11 40.9707C240.429 39.8093 240.863 38.6824 241.404 37.6066C242.281 35.7951 243.663 34.1722 244.974 31.9748C245.738 30.694 247.167 28.1852 247.242 27.0448C247.264 26.3929 247.065 25.7527 246.676 25.2289C246.29 24.7464 245.36 24.5973 244.781 24.378L240.049 22.5797C239.877 22.6883 239.755 22.859 239.706 23.0561C239.658 23.2532 239.688 23.4612 239.79 23.6367C240.007 23.9754 240.31 24.2508 240.667 24.435L242.536 25.5754C242.974 25.8342 243.369 26.014 243.145 26.5491C243.029 26.7697 242.881 26.9721 242.707 27.15C242.233 27.7071 241.698 28.2071 241.189 28.7334C240.036 29.9308 238.825 31.2774 238.382 32.9178" stroke="#602B7A" stroke-width="0.693009" stroke-linecap="round" stroke-linejoin="round"></path> </svg> 